<svg xmlns="http://www.w3.org/2000/svg" viewBox="0 0 620 490" width="620" height="490">
  <style>text { font-family: ui-monospace, SFMono-Regular, monospace; }</style>
  <defs>
    <marker id="arr-gold" markerWidth="7" markerHeight="7" refX="5" refY="3" orient="auto">
      <path d="M0,0 L0,6 L7,3 z" fill="#e6a817"/>
    </marker>
  </defs>

  <!-- Background -->
  <rect width="620" height="490" fill="#0d1117"/>

  <!-- ROI rectangle -->
  <rect x="130" y="95" width="280" height="280" fill="none" stroke="#444" stroke-width="1.5" stroke-dasharray="6,4"/>
  <text x="270" y="87" fill="#555" text-anchor="middle" font-size="11">ROI rectangle</text>

  <!-- Outer radius circle -->
  <circle cx="270" cy="235" r="140" fill="none" stroke="#3a6fa0" stroke-width="1.2" stroke-dasharray="7,4"/>

  <!-- Min radius circle -->
  <circle cx="270" cy="235" r="22" fill="none" stroke="#e6a817" stroke-width="1.4" stroke-dasharray="4,3"/>

  <!-- Center dot -->
  <circle cx="270" cy="235" r="3" fill="#e6a817"/>

  <!-- Spiral arms (outward then inward for each of 4 arm cycles) -->
  <path d="M 272.93,256.80 L 269.81,258.06 L 266.40,258.80 L 262.79,258.99 L 259.07,258.57 L 255.36,257.55 L 251.74,255.91 L 248.32,253.67 L 245.21,250.86 L 242.48,247.53 L 240.24,243.73 L 238.55,239.54 L 237.48,235.05 L 237.08,230.35 L 237.39,225.54 L 238.42,220.74 L 240.18,216.05 L 242.65,211.59 L 245.80,207.46 L 249.58,203.77 L 253.94,200.62 L 258.78,198.10 L 264.02,196.28 L 269.55,195.21 L 275.26,194.96 L 281.02,195.54 L 286.73,196.96 L 292.24,199.23 L 297.44,202.30 L 302.20,206.14 L 306.42,210.68 L 309.98,215.84 L 312.80,221.53 L 314.80,227.63 L 315.91,234.03 L 316.10,240.59 L 315.34,247.19 L 313.63,253.68 L 310.98,259.92 L 307.42,265.78 L 303.02,271.13 L 297.86,275.83 L 292.01,279.80 L 285.60,282.91 L 278.75,285.10 L 271.59,286.30 L 264.27,286.47 L 256.93,285.59 L 249.73,283.65 L 242.83,280.69 L 236.36,276.73 L 230.47,271.86 L 225.29,266.15 L 220.94,259.71 L 217.53,252.66 L 215.14,245.14 L 213.83,237.30 L 213.65,229.29 L 214.62,221.27 L 216.73,213.42 L 219.96,205.90 L 224.25,198.86 L 229.54,192.45 L 235.73,186.83 L 242.71,182.11 L 250.33,178.40 L 258.46,175.80 L 266.92,174.37 L 275.57,174.15 L 284.21,175.17 L 292.67,177.42 L 300.77,180.87 L 308.35,185.46 L 315.25,191.12 L 321.30,197.74 L 326.39,205.19 L 330.39,213.34 L 333.21,222.03 L 334.78,231.08 L 335.05,240.31 L 334.00,249.53 L 331.64,258.57 L 328.00,267.22 L 323.15,275.32 L 317.16,282.69 L 310.16,289.16 L 302.26,294.61 L 293.63,298.90 L 284.43,301.94 L 274.84,303.66 L 265.05,304.00 L 255.27,302.94 L 245.69,300.50 L 236.51,296.70 L 227.92,291.62 L 220.10,285.34 L 213.21,277.97 L 207.41,269.67 L 202.82,260.59 L 199.56,250.91 L 197.69,240.81 L 197.26,230.50 L 198.31,220.20 L 200.82,210.10 L 204.75,200.41 L 210.04,191.34 L 216.58,183.07 L 224.27,175.79 L 232.95,169.64 L 242.45,164.76 L 252.59,161.26 L 263.16,159.22 L 273.96,158.71 L 284.77,159.73 L 295.37,162.28 L 305.55,166.32 L 315.08,171.79 L 323.78,178.58 L 331.46,186.56 L 337.95,195.59 L 343.13,205.48 L 346.86,216.05 L 349.07,227.08 L 349.69,238.36 L 348.71,249.65 L 346.13,260.73 L 341.99,271.37 L 336.37,281.36 L 329.36,290.48 L 321.10,298.54 L 311.75,305.38 L 301.49,310.85 L 290.51,314.82 L 279.05,317.21 L 267.32,317.95 L 255.57,317.02 L 244.03,314.43 L 232.93,310.21 L 222.50,304.45 L 212.97,297.24 L 204.52,288.73 L 197.34,279.07 L 191.58,268.46 L 187.36,257.11 L 184.79,245.23 L 183.92,233.07 L 184.78,220.87 L 187.38,208.88 L 191.65,197.33 L 197.54,186.48 L 204.93,176.54 L 213.67,167.71 L 223.61,160.19 L 234.55,154.13 L 246.27,149.67 L 258.54,146.91 L 271.12,145.90 L 283.75,146.69 L 296.18,149.27 L 308.16,153.60 L 319.43,159.59 L 329.77,167.14 L 338.97,176.10 L 346.83,186.31 L 353.18,197.56 L 357.89,209.63 L 360.86,222.28 L 362.00,235.25 L 361.30,248.30 L 358.75,261.15 L 354.39,273.55 L 348.31,285.24 L 340.61,295.97 L 331.45,305.54 L 320.99,313.74 L 309.45,320.39 L 297.05,325.35 L 284.04,328.52 L 270.67,329.82 L 257.22,329.21 L 243.96,326.69 L 231.15,322.32 L 219.06,316.16 L 207.93,308.33 L 198.00,298.98 L 189.47,288.29 L 182.52,276.47 L 177.29,263.75 L 173.92,250.39 L 172.46,236.65 L 172.97,222.81 L 175.43,209.14 L 179.82,195.93 L 186.04,183.44 L 193.99,171.93 L 203.51,161.63 L 214.42,152.77 L 226.51,145.52 L 239.53,140.04 L 253.22,136.45 L 267.32,134.83 L 281.54,135.22 L 295.60,137.62 L 309.21,142.00 L 322.09,148.28 L 333.98,156.34 L 344.63,166.02 L 353.83,177.13 L 361.38,189.47 L 367.13,202.77 L 370.94,216.79 L 372.73,231.24 L 372.46,245.83 L 370.12,260.27 L 365.76,274.27 L 359.44,287.53 L 351.29,299.80 L 341.47,310.81 L 330.16,320.34 L 317.59,328.20 L 304.00,334.21 L 289.67,338.24 L 274.88,340.21 L 259.93,340.07 L 245.12,337.81 L 230.75,333.47 L 217.10,327.12 L 204.47,318.89 L 193.10,308.94 L 183.23,297.45 L 175.08,284.65 L 168.80,270.80 L 164.53,256.17 L 162.38,241.06 L 162.38,225.76 L 164.56,210.58 L 168.87,195.83 L 175.23,181.81 L 183.53,168.81 L 193.61,157.09 L 205.26,146.89 L 218.27,138.43 L 232.38,131.88 L 247.29,127.38 L 262.73,125.04 L 278.37,124.90 L 293.90,126.98 L 309.02,131.24 L 323.40,137.61 L 336.77,145.97 L 348.84,156.16 L 359.37,167.97 L 368.14,181.18 L 374.96,195.53 L 379.70,210.73 L 382.24,226.47 L 382.53,242.44 L 380.55,258.33 L 376.34,273.80 L 369.97,288.55 L 361.56,302.27 L 351.28,314.69 L 339.32,325.56 L 325.91,334.63 L 311.34,341.73 L 295.87,346.71 L 279.83,349.45 L 263.53,349.90 L 247.31,348.03 L 231.48,343.88 L 216.37,337.53 L 202.29,329.08 L 189.52,318.70 L 178.33,306.61 L 168.95,293.03 L 161.57,278.23 L 156.34,262.50 L 153.39,246.17 L 152.78,229.56 L 154.53,213.00 L 158.61,196.82 L 164.95,181.36 L 173.43,166.92 L 183.88,153.81 L 196.10,142.29 L 209.85,132.60 L 224.86,124.93 L 240.84,119.46 L 257.45,116.30 L 274.37,115.52 L 291.26,117.14 L 307.78,121.14 L 323.59,127.45 L 338.37,135.95 L 351.83,146.47 L 363.68,158.81 L 373.69,172.72 L 381.64,187.93 L 387.36,204.15 L 390.74,221.03 L 391.70,238.25 L 390.21,255.47 L 386.29,272.32 L 380.02,288.48 L 371.51,303.61 L 360.93,317.41 L 348.49,329.59 L 334.42,339.91 L 319.02,348.14 L 302.57,354.12 L 285.42,357.72 L 267.91,358.86 L 250.38,357.51 L 233.19,353.69 L 216.69,347.47 L 201.22,338.96 L 187.08,328.33 L 174.57,315.78 L 163.94,301.58 L 155.42,285.98 L 149.17,269.32 L 145.35,251.91 L 144.02,234.11 L 145.22,216.27 L 148.94,198.76 L 155.11,181.92 L 163.62,166.11 L 174.29,151.63 L 186.92,138.79 L 201.26,127.85 L 217.03,119.03 L 233.91,112.53 L 251.57,108.47 L 269.65,106.95 L 287.79,108.00 L 305.62,111.61 L 322.79,117.72 L 338.95,126.21 L 353.76,136.91 L 366.93,149.62 L 378.19,164.09 L 387.29,180.02 L 394.07,197.11 L 398.36,215.01 L 400.08,233.36 L 399.19,251.80 L 395.69,269.95 L 389.65,287.45 L 381.19,303.94 L 370.46,319.09 L 357.68,332.59 L 343.09,344.16 L 327.00,353.56 L 309.71,360.61 L 291.58,365.14 L 272.96,367.06 L 254.23,366.33 L 235.77,362.96 L 217.95,357.00 L 201.12,348.56 L 185.64,337.82 L 171.81,324.97 L 159.93,310.28 L 150.22,294.04 L 142.91,276.56 L 138.13,258.20 L 136.00,239.32 L 136.56,220.31 L 139.80,201.54 L 145.68,183.39 L 154.08,166.24 L 164.83,150.42 L 177.73,136.27 L 192.52,124.07 L 208.91,114.07 L 226.57,106.47 L 245.15,101.45 L 264.28,99.10 L 283.57,99.48 L 302.65,102.60 L 321.11,108.38 L 338.59,116.73 L 354.74,127.48 L 369.22,140.43 L 381.74,155.31 L 392.04,171.83 L 399.91,189.67 L 405.18,208.47 L 407.75,227.84 L 407.55,247.41 L 404.58,266.78 L 398.89,285.56 L 390.60,303.37 L 379.85,319.84 L 366.87,334.65 L 351.90,347.48 L 335.25,358.09 L 317.25,366.24 L 298.24,371.77 L 278.63,374.56 L 258.79,374.55" fill="none" stroke="#58a6ff" stroke-width="1.6" opacity="0.9"/>
  <path d="M 258.79,374.55 L 239.20,371.40 L 220.28,365.51 L 202.41,357.02 L 185.93,346.09 L 171.19,332.97 L 158.46,317.90 L 148.01,301.21 L 140.03,283.23 L 134.69,264.33 L 132.07,244.89 L 132.23,225.29 L 135.16,205.94 L 140.79,187.22 L 148.99,169.51 L 159.61,153.16 L 172.42,138.49 L 187.16,125.80 L 203.52,115.33 L 221.17,107.30 L 239.76,101.85 L 258.91,99.08 L 278.24,99.06 L 297.35,101.76 L 315.86,107.13 L 333.40,115.06 L 349.62,125.37 L 364.20,137.86 L 376.85,152.27 L 387.33,168.30 L 395.41,185.63 L 400.96,203.90 L 403.87,222.75 L 404.08,241.80 L 401.59,260.66 L 396.47,278.96 L 388.83,296.32 L 378.81,312.41 L 366.64,326.89 L 352.56,339.50 L 336.86,349.97 L 319.86,358.10 L 301.91,363.74 L 283.36,366.78 L 264.60,367.17 L 245.99,364.90 L 227.92,360.02 L 210.74,352.65 L 194.80,342.94 L 180.42,331.09 L 167.87,317.34 L 157.41,301.97 L 149.23,285.30 L 143.51,267.67 L 140.34,249.44 L 139.79,230.96 L 141.85,212.61 L 146.48,194.77 L 153.57,177.79 L 162.99,162.00 L 174.52,147.72 L 187.95,135.24 L 202.98,124.80 L 219.31,116.60 L 236.61,110.80 L 254.54,107.51 L 272.72,106.79 L 290.79,108.64 L 308.40,113.03 L 325.18,119.86 L 340.81,128.98 L 354.97,140.20 L 367.38,153.29 L 377.79,167.98 L 386.02,183.97 L 391.89,200.95 L 395.29,218.55 L 396.17,236.43 L 394.51,254.24 L 390.35,271.60 L 383.80,288.17 L 374.97,303.63 L 364.07,317.66 L 351.31,329.98 L 336.96,340.37 L 321.30,348.60 L 304.67,354.53 L 287.39,358.04 L 269.81,359.07 L 252.29,357.61 L 235.18,353.69 L 218.83,347.39 L 203.55,338.86 L 189.65,328.27 L 177.42,315.85 L 167.08,301.83 L 158.84,286.52 L 152.85,270.23 L 149.24,253.27 L 148.07,236.01 L 149.34,218.78 L 153.04,201.93 L 159.07,185.80 L 167.31,170.71 L 177.59,156.96 L 189.68,144.83 L 203.35,134.54 L 218.32,126.30 L 234.27,120.27 L 250.89,116.57 L 267.83,115.26 L 284.76,116.35 L 301.34,119.83 L 317.24,125.60 L 332.13,133.55 L 345.73,143.51 L 357.75,155.28 L 367.98,168.60 L 376.20,183.22 L 382.27,198.82 L 386.06,215.10 L 387.50,231.72 L 386.58,248.34 L 383.33,264.65 L 377.81,280.30 L 370.14,294.98 L 360.49,308.42 L 349.06,320.32 L 336.08,330.48 L 321.82,338.68 L 306.57,344.77 L 290.64,348.64 L 274.35,350.21 L 258.04,349.46 L 242.02,346.41 L 226.62,341.15 L 212.15,333.76 L 198.90,324.43 L 187.11,313.33 L 177.04,300.70 L 168.87,286.79 L 162.76,271.90 L 158.83,256.32 L 157.14,240.38 L 157.73,224.38 L 160.56,208.66 L 165.59,193.52 L 172.69,179.28 L 181.71,166.21 L 192.48,154.57 L 204.76,144.58 L 218.30,136.46 L 232.83,130.34 L 248.05,126.34 L 263.65,124.55 L 279.32,124.97 L 294.74,127.61 L 309.60,132.39 L 323.61,139.21 L 336.48,147.93 L 347.97,158.36 L 357.85,170.29 L 365.93,183.47 L 372.05,197.63 L 376.09,212.48 L 377.99,227.73 L 377.71,243.06 L 375.27,258.16 L 370.73,272.74 L 364.19,286.50 L 355.78,299.17 L 345.68,310.50 L 334.11,320.26 L 321.30,328.28 L 307.51,334.39 L 293.03,338.47 L 278.15,340.46 L 263.16,340.33 L 248.38,338.08 L 234.10,333.78 L 220.60,327.50 L 208.14,319.40 L 196.99,309.64 L 187.35,298.43 L 179.41,285.99 L 173.32,272.58 L 169.20,258.48 L 167.13,243.96 L 167.12,229.34 L 169.19,214.89 L 173.26,200.91 L 179.26,187.68 L 187.06,175.46 L 196.48,164.49 L 207.34,154.99 L 219.40,147.13 L 232.43,141.08 L 246.14,136.94 L 260.27,134.79 L 274.54,134.65 L 288.64,136.54 L 302.30,140.39 L 315.25,146.12 L 327.22,153.61 L 337.99,162.70 L 347.35,173.19 L 355.10,184.87 L 361.11,197.51 L 365.27,210.83 L 367.48,224.57 L 367.74,238.45 L 366.02,252.20 L 362.39,265.53 L 356.93,278.18 L 349.74,289.90 L 340.99,300.46 L 330.87,309.65 L 319.57,317.30 L 307.33,323.25 L 294.41,327.40 L 281.07,329.68 L 267.58,330.04 L 254.20,328.49 L 241.21,325.08 L 228.87,319.87 L 217.42,312.99 L 207.09,304.59 L 198.08,294.83 L 190.56,283.92 L 184.67,272.09 L 180.53,259.58 L 178.21,246.65 L 177.75,233.55 L 179.13,220.56 L 182.34,207.93 L 187.28,195.92 L 193.86,184.76 L 201.93,174.67 L 211.32,165.85 L 221.83,158.47 L 233.24,152.66 L 245.33,148.55 L 257.84,146.19 L 270.52,145.63 L 283.12,146.87 L 295.37,149.87 L 307.05,154.56 L 317.90,160.83 L 327.73,168.56 L 336.35,177.57 L 343.57,187.68 L 349.28,198.67 L 353.36,210.33 L 355.73,222.40 L 356.38,234.66 L 355.28,246.84 L 352.49,258.70 L 348.05,270.02 L 342.08,280.55 L 334.69,290.11 L 326.06,298.49 L 316.37,305.55 L 305.80,311.14 L 294.59,315.17 L 282.96,317.56 L 271.15,318.27 L 259.40,317.31 L 247.94,314.71 L 237.00,310.52 L 226.81,304.85 L 217.55,297.81 L 209.41,289.57 L 202.55,280.29 L 197.08,270.16 L 193.13,259.41 L 190.74,248.24 L 189.96,236.89 L 190.79,225.59 L 193.21,214.56 L 197.15,204.02 L 202.52,194.19 L 209.21,185.25 L 217.06,177.37 L 225.92,170.72 L 235.59,165.40 L 245.87,161.53 L 256.56,159.16 L 267.43,158.33 L 278.27,159.05 L 288.85,161.29 L 298.96,164.99 L 308.41,170.06 L 317.01,176.39 L 324.60,183.85 L 331.02,192.27 L 336.17,201.47 L 339.94,211.27 L 342.27,221.46 L 343.13,231.83 L 342.52,242.17 L 340.46,252.28 L 337.00,261.95 L 332.23,270.99 L 326.25,279.22 L 319.20,286.49 L 311.23,292.66 L 302.50,297.61 L 293.21,301.26 L 283.54,303.54 L 273.69,304.42 L 263.87,303.90 L 254.26,302.00 L 245.07,298.78 L 236.47,294.31 L 228.64,288.69 L 221.71,282.06 L 215.83,274.54 L 211.10,266.32 L 207.60,257.55 L 205.39,248.42 L 204.50,239.13 L 204.94,229.85 L 206.68,220.78 L 209.67,212.10 L 213.84,203.98 L 219.09,196.57 L 225.30,190.03 L 232.34,184.46 L 240.05,179.98 L 248.26,176.65 L 256.82,174.54 L 265.53,173.67 L 274.22,174.04 L 282.72,175.64 L 290.85,178.40 L 298.46,182.27 L 305.39,187.14 L 311.52,192.92 L 316.73,199.46 L 320.93,206.62 L 324.05,214.26 L 326.03,222.20 L 326.87,230.29 L 326.54,238.36 L 325.08,246.23 L 322.54,253.77 L 318.97,260.81 L 314.48,267.22 L 309.16,272.89 L 303.14,277.70 L 296.55,281.57 L 289.53,284.44 L 282.24,286.27 L 274.82,287.03 L 267.44,286.73 L 260.24,285.39 L 253.36,283.06 L 246.95,279.81 L 241.12,275.71 L 235.98,270.86 L 231.63,265.39 L 228.14,259.41 L 225.57,253.06 L 223.95,246.47 L 223.29,239.79 L 223.60,233.16 L 224.83,226.71 L 226.96,220.57 L 229.90,214.87 L 233.59,209.70 L 237.93,205.18 L 242.82,201.37 L 248.13,198.34 L 253.76,196.14 L 259.56,194.78 L 265.42,194.28 L 271.20,194.63 L 276.80,195.80 L 282.09,197.73 L 286.97,200.36 L 291.34,203.63 L 295.14,207.43 L 298.29,211.68 L 300.74,216.25 L 302.47,221.05 L 303.45,225.96 L 303.70,230.87 L 303.24,235.66 L 302.09,240.24 L 300.32,244.51 L 297.98,248.37 L 295.16,251.76 L 291.94,254.62 L 288.42,256.89 L 284.69,258.56 L 280.85,259.60 L 277.02,260.02 L 273.29,259.83 L 269.76,259.07 L 266.51,257.79 L 263.63,256.06" fill="none" stroke="#3d7dc8" stroke-width="1.3" opacity="0.75"/>
  <path d="M 253.11,220.90 L 254.56,217.87 L 256.58,215.01 L 259.12,212.44 L 262.13,210.24 L 265.56,208.48 L 269.34,207.25 L 273.37,206.59 L 277.57,206.56 L 281.83,207.17 L 286.05,208.46 L 290.12,210.41 L 293.94,213.00 L 297.41,216.19 L 300.44,219.94 L 302.92,224.18 L 304.79,228.83 L 305.99,233.79 L 306.45,238.96 L 306.15,244.24 L 305.07,249.50 L 303.20,254.63 L 300.57,259.51 L 297.21,264.03 L 293.17,268.08 L 288.53,271.54 L 283.36,274.35 L 277.76,276.40 L 271.86,277.65 L 265.75,278.03 L 259.58,277.53 L 253.46,276.13 L 247.54,273.85 L 241.95,270.70 L 236.80,266.73 L 232.23,262.02 L 228.33,256.64 L 225.21,250.70 L 222.95,244.30 L 221.61,237.58 L 221.25,230.67 L 221.88,223.71 L 223.51,216.84 L 226.13,210.21 L 229.70,203.97 L 234.17,198.25 L 239.46,193.17 L 245.46,188.87 L 252.08,185.43 L 259.18,182.96 L 266.62,181.50 L 274.25,181.12 L 281.93,181.83 L 289.48,183.65 L 296.76,186.54 L 303.60,190.47 L 309.87,195.37 L 315.41,201.15 L 320.11,207.71 L 323.86,214.93 L 326.56,222.66 L 328.15,230.75 L 328.57,239.04 L 327.81,247.37 L 325.85,255.56 L 322.74,263.45 L 318.50,270.86 L 313.23,277.63 L 307.00,283.63 L 299.94,288.71 L 292.18,292.77 L 283.87,295.70 L 275.18,297.43 L 266.28,297.92 L 257.34,297.13 L 248.55,295.07 L 240.10,291.76 L 232.15,287.26 L 224.89,281.65 L 218.45,275.03 L 212.99,267.51 L 208.63,259.26 L 205.46,250.42 L 203.57,241.17 L 203.01,231.70 L 203.80,222.19 L 205.95,212.84 L 209.41,203.84 L 214.14,195.38 L 220.06,187.64 L 227.04,180.78 L 234.97,174.95 L 243.68,170.29 L 253.02,166.88 L 262.79,164.83 L 272.80,164.17 L 282.85,164.95 L 292.73,167.15 L 302.25,170.75 L 311.20,175.69 L 319.40,181.87 L 326.67,189.18 L 332.86,197.49 L 337.84,206.63 L 341.48,216.43 L 343.71,226.69 L 344.46,237.21 L 343.72,247.77 L 341.47,258.17 L 337.76,268.18 L 332.65,277.61 L 326.23,286.26 L 318.61,293.93 L 309.95,300.48 L 300.41,305.76 L 290.18,309.65 L 279.46,312.06 L 268.46,312.93 L 257.40,312.23 L 246.51,309.96 L 236.02,306.16 L 226.13,300.89 L 217.05,294.25 L 208.97,286.36 L 202.07,277.37 L 196.49,267.45 L 192.35,256.81 L 189.75,245.65 L 188.76,234.19 L 189.40,222.66 L 191.67,211.30 L 195.55,200.34 L 200.95,190.00 L 207.80,180.50 L 215.94,172.03 L 225.24,164.77 L 235.50,158.89 L 246.53,154.50 L 258.11,151.71 L 270.01,150.58 L 281.99,151.15 L 293.81,153.42 L 305.22,157.35 L 316.00,162.88 L 325.92,169.90 L 334.78,178.28 L 342.38,187.86 L 348.57,198.45 L 353.21,209.85 L 356.20,221.83 L 357.47,234.15 L 356.99,246.57 L 354.74,258.83 L 350.76,270.68 L 345.13,281.89 L 337.95,292.22 L 329.36,301.45 L 319.51,309.40 L 308.60,315.90 L 296.85,320.80 L 284.49,324.00 L 271.76,325.42 L 258.93,325.02 L 246.24,322.80 L 233.96,318.80 L 222.33,313.08 L 211.60,305.76 L 201.99,296.96 L 193.69,286.86 L 186.89,275.67 L 181.73,263.58 L 178.32,250.85 L 176.75,237.74 L 177.04,224.49 L 179.22,211.39 L 183.23,198.69 L 189.02,186.65 L 196.48,175.52 L 205.46,165.54 L 215.79,156.90 L 227.27,149.79 L 239.67,144.37 L 252.74,140.74 L 266.24,139.00 L 279.88,139.19 L 293.39,141.31 L 306.50,145.33 L 318.94,151.18 L 330.45,158.75 L 340.81,167.90 L 349.79,178.45 L 357.20,190.19 L 362.89,202.89 L 366.74,216.31 L 368.65,230.16 L 368.58,244.19 L 366.53,258.09 L 362.51,271.60 L 356.62,284.44 L 348.94,296.34 L 339.64,307.06 L 328.89,316.37 L 316.90,324.10 L 303.91,330.06 L 290.17,334.13 L 275.96,336.22 L 261.57,336.28 L 247.27,334.30 L 233.37,330.30 L 220.15,324.37 L 207.87,316.61 L 196.79,307.16 L 187.13,296.22 L 179.10,284.00 L 172.87,270.73 L 168.57,256.68 L 166.29,242.13 L 166.09,227.37 L 167.99,212.71 L 171.96,198.42 L 177.92,184.82 L 185.76,172.16 L 195.33,160.72 L 206.45,150.72 L 218.90,142.38 L 232.43,135.88 L 246.78,131.34 L 261.65,128.87 L 276.76,128.54 L 291.80,130.34 L 306.45,134.27 L 320.44,140.24 L 333.47,148.15 L 345.27,157.84 L 355.60,169.12 L 364.25,181.78 L 371.03,195.57 L 375.81,210.20 L 378.47,225.40 L 378.96,240.85 L 377.25,256.24 L 373.37,271.27 L 367.40,285.62 L 359.44,299.02 L 349.64,311.17 L 338.20,321.84 L 325.34,330.80 L 311.32,337.86 L 296.41,342.88 L 280.90,345.75 L 265.12,346.39 L 249.38,344.79 L 233.99,340.97 L 219.27,335.00 L 205.51,327.00 L 193.00,317.11 L 182.00,305.52 L 172.73,292.48 L 165.38,278.22 L 160.11,263.04 L 157.04,247.24 L 156.24,231.14 L 157.72,215.05 L 161.47,199.31 L 167.42,184.22 L 175.46,170.11 L 185.44,157.25 L 197.15,145.91 L 210.38,136.32 L 224.85,128.69 L 240.29,123.18 L 256.38,119.89 L 272.80,118.92 L 289.22,120.28 L 305.32,123.95 L 320.76,129.88 L 335.23,137.95 L 348.43,148.00 L 360.11,159.83 L 370.01,173.22 L 377.92,187.91 L 383.69,203.59 L 387.19,219.96 L 388.35,236.69 L 387.12,253.44 L 383.52,269.88 L 377.63,285.67 L 369.55,300.49 L 359.44,314.05 L 347.49,326.05 L 333.94,336.27 L 319.05,344.47 L 303.13,350.50 L 286.49,354.22 L 269.46,355.56 L 252.39,354.47 L 235.61,350.96 L 219.48,345.11 L 204.30,337.03 L 190.41,326.86 L 178.07,314.81 L 167.54,301.11 L 159.04,286.04 L 152.75,269.88 L 148.80,252.98 L 147.28,235.66 L 148.23,218.27 L 151.63,201.16 L 157.43,184.68 L 165.52,169.17 L 175.73,154.93 L 187.87,142.25 L 201.71,131.41 L 216.97,122.62 L 233.34,116.06 L 250.50,111.88 L 268.10,110.17 L 285.80,110.97 L 303.23,114.27 L 320.05,120.00 L 335.91,128.08 L 350.49,138.33 L 363.50,150.56 L 374.66,164.52 L 383.74,179.95 L 390.57,196.53 L 394.98,213.94 L 396.89,231.82 L 396.25,249.82 L 393.07,267.58 L 387.40,284.73 L 379.34,300.93 L 369.06,315.85 L 356.76,329.18 L 342.67,340.66 L 327.08,350.04 L 310.30,357.14 L 292.65,361.79 L 274.50,363.91 L 256.20,363.43 L 238.13,360.37 L 220.65,354.77 L 204.11,346.74 L 188.85,336.45 L 175.19,324.08 L 163.39,309.88 L 153.71,294.13 L 146.34,277.15 L 141.45,259.27 L 139.12,240.85 L 139.43,222.27 L 142.37,203.88 L 147.88,186.08 L 155.87,169.21 L 166.18,153.62 L 178.61,139.62 L 192.91,127.51 L 208.81,117.53 L 225.98,109.88 L 244.08,104.74 L 262.75,102.20 L 281.62,102.33 L 300.31,105.13 L 318.44,110.56 L 335.64,118.50 L 351.56,128.82 L 365.89,141.30 L 378.32,155.69 L 388.61,171.73 L 396.53,189.08 L 401.93,207.40 L 404.68,226.32 L 404.73,245.47 L 402.07,264.46 L 396.74,282.90 L 388.84,300.43 L 378.54,316.69 L 366.02,331.34 L 351.53,344.09 L 335.37,354.68 L 317.84,362.89 L 299.31,368.54 L 280.14,371.52 L 260.72,371.75 L 241.44,369.24 L 222.68,364.01 L 204.83,356.18 L 188.24,345.88 L 173.26,333.33 L 160.19,318.76 L 149.30,302.47 L 140.81,284.79 L 134.89,266.05 L 131.69,246.65 L 131.26,226.96 L 133.62,207.38 L 138.74,188.31 L 146.51,170.14 L 156.79,153.23 L 169.37,137.92 L 184.00,124.53" fill="none" stroke="#3fb950" stroke-width="1.6" opacity="0.9"/>
  <path d="M 184.00,124.53 L 200.58,113.62 L 218.50,105.18 L 237.42,99.37 L 256.95,96.30 L 276.69,96.02 L 296.24,98.53 L 315.22,103.77 L 333.25,111.64 L 349.96,121.97 L 365.03,134.54 L 378.14,149.10 L 389.06,165.34 L 397.55,182.95 L 403.46,201.55 L 406.68,220.78 L 407.14,240.25 L 404.85,259.56 L 399.86,278.33 L 392.27,296.18 L 382.24,312.76 L 369.99,327.73 L 355.76,340.80 L 339.84,351.72 L 322.56,360.26 L 304.27,366.27 L 285.34,369.62 L 266.16,370.26 L 247.09,368.18 L 228.54,363.43 L 210.87,356.12 L 194.44,346.39 L 179.56,334.46 L 166.54,320.55 L 155.63,304.97 L 147.05,288.02 L 140.96,270.05 L 137.48,251.43 L 136.67,232.52 L 138.53,213.72 L 143.04,195.39 L 150.08,177.91 L 159.51,161.62 L 171.13,146.85 L 184.71,133.89 L 199.96,123.00 L 216.58,114.39 L 234.22,108.22 L 252.54,104.61 L 271.15,103.63 L 289.69,105.30 L 307.78,109.56 L 325.07,116.33 L 341.20,125.47 L 355.85,136.77 L 368.74,150.02 L 379.62,164.94 L 388.25,181.22 L 394.49,198.54 L 398.22,216.54 L 399.35,234.86 L 397.89,253.13 L 393.86,270.99 L 387.36,288.07 L 378.52,304.03 L 367.52,318.56 L 354.60,331.38 L 340.02,342.22 L 324.07,350.87 L 307.09,357.18 L 289.41,361.01 L 271.39,362.30 L 253.39,361.03 L 235.79,357.23 L 218.92,350.99 L 203.13,342.44 L 188.73,331.76 L 176.00,319.17 L 165.20,304.92 L 156.53,289.31 L 150.17,272.66 L 146.24,255.31 L 144.80,237.60 L 145.88,219.89 L 149.45,202.53 L 155.43,185.89 L 163.69,170.28 L 174.07,156.01 L 186.33,143.38 L 200.24,132.63 L 215.50,123.96 L 231.81,117.56 L 248.84,113.53 L 266.24,111.95 L 283.66,112.85 L 300.75,116.20 L 317.17,121.92 L 332.59,129.89 L 346.70,139.95 L 359.23,151.89 L 369.92,165.46 L 378.58,180.38 L 385.03,196.34 L 389.14,213.04 L 390.86,230.12 L 390.13,247.24 L 387.00,264.06 L 381.53,280.24 L 373.84,295.46 L 364.09,309.41 L 352.48,321.83 L 339.26,332.46 L 324.69,341.10 L 309.07,347.58 L 292.71,351.77 L 275.96,353.61 L 259.14,353.06 L 242.60,350.14 L 226.67,344.92 L 211.66,337.51 L 197.87,328.07 L 185.58,316.79 L 175.02,303.91 L 166.41,289.69 L 159.91,274.42 L 155.64,258.41 L 153.68,241.99 L 154.07,225.49 L 156.78,209.23 L 161.75,193.55 L 168.88,178.76 L 178.02,165.15 L 188.97,152.99 L 201.50,142.52 L 215.37,133.95 L 230.28,127.43 L 245.94,123.10 L 262.02,121.03 L 278.21,121.26 L 294.17,123.77 L 309.58,128.50 L 324.15,135.35 L 337.57,144.18 L 349.59,154.80 L 359.96,166.99 L 368.49,180.50 L 375.01,195.05 L 379.40,210.35 L 381.57,226.09 L 381.49,241.94 L 379.18,257.60 L 374.69,272.74 L 368.11,287.07 L 359.58,300.29 L 349.29,312.16 L 337.45,322.42 L 324.30,330.90 L 310.11,337.41 L 295.18,341.84 L 279.79,344.11 L 264.28,344.18 L 248.93,342.06 L 234.08,337.80 L 220.00,331.49 L 206.98,323.27 L 195.29,313.31 L 185.13,301.82 L 176.73,289.03 L 170.23,275.22 L 165.76,260.65 L 163.40,245.63 L 163.20,230.45 L 165.13,215.43 L 169.17,200.87 L 175.21,187.05 L 183.13,174.26 L 192.75,162.74 L 203.89,152.71 L 216.31,144.39 L 229.75,137.91 L 243.94,133.42 L 258.60,130.98 L 273.42,130.64 L 288.10,132.40 L 302.36,136.21 L 315.90,141.99 L 328.47,149.60 L 339.80,158.90 L 349.68,169.68 L 357.92,181.73 L 364.36,194.79 L 368.87,208.60 L 371.38,222.88 L 371.84,237.33 L 370.25,251.67 L 366.66,265.61 L 361.15,278.87 L 353.83,291.19 L 344.87,302.33 L 334.44,312.06 L 322.77,320.19 L 310.09,326.58 L 296.67,331.10 L 282.78,333.67 L 268.70,334.24 L 254.72,332.82 L 241.11,329.45 L 228.14,324.19 L 216.08,317.17 L 205.16,308.54 L 195.60,298.47 L 187.58,287.18 L 181.25,274.90 L 176.73,261.88 L 174.12,248.38 L 173.43,234.69 L 174.69,221.07 L 177.86,207.80 L 182.86,195.15 L 189.58,183.36 L 197.88,172.67 L 207.59,163.28 L 218.50,155.39 L 230.38,149.13 L 242.99,144.64 L 256.08,141.98 L 269.38,141.20 L 282.62,142.30 L 295.53,145.27 L 307.86,150.01 L 319.37,156.44 L 329.81,164.41 L 339.00,173.75 L 346.75,184.27 L 352.92,195.74 L 357.39,207.94 L 360.08,220.62 L 360.95,233.51 L 359.98,246.35 L 357.22,258.89 L 352.72,270.88 L 346.59,282.08 L 338.95,292.27 L 329.98,301.25 L 319.86,308.85 L 308.80,314.91 L 297.02,319.34 L 284.78,322.05 L 272.31,322.99 L 259.87,322.17 L 247.72,319.59 L 236.08,315.34 L 225.20,309.50 L 215.29,302.20 L 206.54,293.60 L 199.12,283.88 L 193.17,273.24 L 188.79,261.90 L 186.08,250.10 L 185.07,238.07 L 185.77,226.05 L 188.16,214.30 L 192.17,203.04 L 197.72,192.50 L 204.68,182.88 L 212.90,174.37 L 222.22,167.14 L 232.42,161.32 L 243.32,157.02 L 254.67,154.32 L 266.24,153.25 L 277.82,153.83 L 289.15,156.04 L 300.01,159.82 L 310.20,165.07 L 319.50,171.70 L 327.74,179.54 L 334.76,188.44 L 340.43,198.20 L 344.64,208.63 L 347.32,219.52 L 348.43,230.62 L 347.96,241.73 L 345.93,252.62 L 342.38,263.07 L 337.42,272.88 L 331.14,281.84 L 323.68,289.80 L 315.21,296.59 L 305.89,302.08 L 295.94,306.19 L 285.54,308.83 L 274.92,309.97 L 264.29,309.60 L 253.87,307.73 L 243.86,304.42 L 234.46,299.74 L 225.86,293.80 L 218.21,286.74 L 211.68,278.70 L 206.37,269.85 L 202.39,260.39 L 199.81,250.50 L 198.65,240.39 L 198.94,230.27 L 200.65,220.33 L 203.74,210.79 L 208.13,201.82 L 213.72,193.61 L 220.39,186.30 L 227.98,180.05 L 236.34,174.96 L 245.30,171.13 L 254.66,168.62 L 264.23,167.47 L 273.82,167.68 L 283.23,169.25 L 292.28,172.12 L 300.78,176.22 L 308.58,181.46 L 315.51,187.71 L 321.45,194.85 L 326.29,202.71 L 329.95,211.13 L 332.36,219.94 L 333.49,228.95 L 333.34,237.97 L 331.91,246.83 L 329.25,255.34 L 325.44,263.34 L 320.56,270.68 L 314.73,277.20 L 308.06,282.80 L 300.72,287.36 L 292.86,290.82 L 284.64,293.10 L 276.23,294.19 L 267.81,294.08 L 259.55,292.77 L 251.61,290.33 L 244.16,286.80 L 237.33,282.29 L 231.25,276.88 L 226.04,270.72 L 221.80,263.92 L 218.58,256.65 L 216.45,249.05 L 215.43,241.29 L 215.53,233.52 L 216.72,225.90 L 218.97,218.60 L 222.20,211.74 L 226.35,205.47 L 231.30,199.89 L 236.95,195.13 L 243.16,191.25 L 249.80,188.32 L 256.73,186.39 L 263.80,185.47 L 270.86,185.58 L 277.76,186.67 L 284.37,188.73 L 290.56,191.67 L 296.21,195.43 L 301.20,199.92 L 305.46,205.01 L 308.91,210.60 L 311.49,216.56 L 313.17,222.76 L 313.93,229.06 L 313.79,235.33 L 312.76,241.44 L 310.89,247.26 L 308.23,252.68 L 304.87,257.60 L 300.88,261.93 L 296.38,265.58 L 291.47,268.50 L 286.26,270.65 L 280.88,272.00 L 275.45,272.55 L 270.09,272.31 L 264.90,271.31 L 260.00,269.59 L 255.48,267.22 L 251.44,264.26 L 247.94,260.81 L 245.04,256.96 L 242.79,252.81 L 241.22,248.47 L 240.33,244.04 L 240.12,239.64 L 240.57,235.36 L 241.63,231.30 L 243.26,227.55 L 245.38,224.19 L 247.92,221.30 L 250.80,218.91 L 253.92,217.08 L 257.18,215.83 L 260.48,215.17" fill="none" stroke="#2d8a3e" stroke-width="1.3" opacity="0.75"/>
  <path d="M 291.98,233.99 L 292.95,237.21 L 293.40,240.67 L 293.26,244.28 L 292.53,247.95 L 291.18,251.56 L 289.24,255.02 L 286.71,258.23 L 283.63,261.08 L 280.07,263.51 L 276.10,265.41 L 271.78,266.73 L 267.21,267.40 L 262.49,267.39 L 257.73,266.66 L 253.03,265.21 L 248.51,263.05 L 244.28,260.20 L 240.45,256.70 L 237.11,252.61 L 234.35,248.00 L 232.26,242.95 L 230.90,237.57 L 230.33,231.97 L 230.57,226.26 L 231.65,220.57 L 233.57,215.01 L 236.31,209.72 L 239.83,204.81 L 244.07,200.40 L 248.96,196.60 L 254.41,193.50 L 260.32,191.19 L 266.57,189.73 L 273.04,189.18 L 279.60,189.56 L 286.11,190.90 L 292.42,193.17 L 298.41,196.36 L 303.93,200.41 L 308.87,205.26 L 313.11,210.82 L 316.55,216.99 L 319.09,223.64 L 320.67,230.66 L 321.25,237.90 L 320.78,245.21 L 319.25,252.44 L 316.70,259.44 L 313.14,266.06 L 308.63,272.16 L 303.26,277.60 L 297.12,282.26 L 290.32,286.03 L 283.00,288.81 L 275.30,290.54 L 267.38,291.15 L 259.38,290.64 L 251.48,288.97 L 243.85,286.18 L 236.63,282.31 L 229.99,277.41 L 224.08,271.58 L 219.02,264.92 L 214.92,257.57 L 211.90,249.65 L 210.02,241.33 L 209.33,232.76 L 209.87,224.14 L 211.64,215.62 L 214.62,207.39 L 218.77,199.61 L 224.01,192.46 L 230.24,186.09 L 237.37,180.63 L 245.24,176.22 L 253.71,172.95 L 262.60,170.90 L 271.75,170.13 L 280.97,170.66 L 290.07,172.52 L 298.87,175.66 L 307.17,180.04 L 314.81,185.58 L 321.63,192.19 L 327.47,199.73 L 332.20,208.07 L 335.72,217.05 L 337.95,226.48 L 338.82,236.18 L 338.30,245.96 L 336.39,255.61 L 333.12,264.94 L 328.54,273.76 L 322.72,281.87 L 315.78,289.11 L 307.85,295.33 L 299.07,300.38 L 289.62,304.16 L 279.69,306.56 L 269.47,307.54 L 259.16,307.06 L 248.99,305.12 L 239.14,301.74 L 229.84,296.98 L 221.26,290.92 L 213.60,283.67 L 207.02,275.38 L 201.65,266.20 L 197.62,256.31 L 195.02,245.90 L 193.92,235.19 L 194.34,224.38 L 196.31,213.70 L 199.78,203.37 L 204.70,193.59 L 210.97,184.57 L 218.50,176.49 L 227.12,169.54 L 236.68,163.86 L 246.99,159.57 L 257.84,156.78 L 269.02,155.54 L 280.31,155.91 L 291.47,157.87 L 302.28,161.41 L 312.52,166.46 L 321.98,172.94 L 330.45,180.72 L 337.77,189.65 L 343.76,199.56 L 348.31,210.27 L 351.31,221.54 L 352.68,233.17 L 352.40,244.92 L 350.45,256.55 L 346.85,267.82 L 341.68,278.51 L 335.03,288.39 L 327.02,297.26 L 317.80,304.93 L 307.55,311.24 L 296.48,316.05 L 284.80,319.26 L 272.74,320.78 L 260.55,320.58 L 248.47,318.65 L 236.75,315.02 L 225.63,309.75 L 215.33,302.94 L 206.07,294.71 L 198.04,285.23 L 191.42,274.67 L 186.34,263.24 L 182.93,251.18 L 181.24,238.71 L 181.34,226.09 L 183.23,213.58 L 186.89,201.42 L 192.24,189.87 L 199.20,179.17 L 207.62,169.52 L 217.36,161.14 L 228.21,154.21 L 239.97,148.86 L 252.41,145.22 L 265.27,143.38 L 278.30,143.37 L 291.23,145.21 L 303.81,148.88 L 315.78,154.30 L 326.89,161.38 L 336.91,169.99 L 345.64,179.96 L 352.89,191.09 L 358.51,203.17 L 362.37,215.95 L 364.39,229.19 L 364.51,242.62 L 362.73,255.97 L 359.07,268.96 L 353.59,281.34 L 346.39,292.84 L 337.62,303.24 L 327.44,312.32 L 316.04,319.88 L 303.66,325.77 L 290.53,329.86 L 276.93,332.06 L 263.11,332.31 L 249.37,330.60 L 235.97,326.95 L 223.19,321.42 L 211.30,314.13 L 200.53,305.20 L 191.10,294.82 L 183.22,283.18 L 177.06,270.50 L 172.74,257.06 L 170.36,243.10 L 169.98,228.91 L 171.61,214.78 L 175.23,200.98 L 180.79,187.81 L 188.17,175.53 L 197.23,164.39 L 207.81,154.62 L 219.68,146.43 L 232.63,139.99 L 246.39,135.43 L 260.69,132.86 L 275.24,132.33 L 289.75,133.88 L 303.93,137.47 L 317.49,143.04 L 330.15,150.50 L 341.66,159.69 L 351.77,170.44 L 360.27,182.53 L 367.00,195.74 L 371.80,209.80 L 374.57,224.43 L 375.24,239.33 L 373.79,254.21 L 370.24,268.77 L 364.66,282.71 L 357.14,295.75 L 347.84,307.62 L 336.93,318.07 L 324.62,326.89 L 311.16,333.90 L 296.82,338.94 L 281.87,341.91 L 266.62,342.74 L 251.38,341.40 L 236.45,337.90 L 222.14,332.32 L 208.73,324.76 L 196.50,315.35 L 185.71,304.29 L 176.57,291.79 L 169.28,278.09 L 163.99,263.46 L 160.81,248.21 L 159.82,232.63 L 161.05,217.04 L 164.48,201.74 L 170.05,187.06 L 177.66,173.29 L 187.15,160.70 L 198.35,149.57 L 211.04,140.11 L 224.97,132.53 L 239.86,126.99 L 255.41,123.60 L 271.31,122.44 L 287.25,123.55 L 302.90,126.91 L 317.95,132.46 L 332.08,140.09 L 345.02,149.67 L 356.50,161.00 L 366.27,173.87 L 374.14,188.01 L 379.94,203.15 L 383.54,218.99 L 384.87,235.21 L 383.90,251.49 L 380.62,267.49 L 375.10,282.89 L 367.44,297.39 L 357.80,310.67 L 346.35,322.49 L 333.32,332.58 L 318.97,340.74 L 303.58,346.80 L 287.46,350.62 L 270.94,352.14 L 254.33,351.29 L 237.99,348.10 L 222.23,342.63 L 207.38,334.96 L 193.74,325.25 L 181.59,313.69 L 171.18,300.51 L 162.73,285.96 L 156.41,270.34 L 152.35,253.95 L 150.66,237.13 L 151.36,220.20 L 154.45,203.52 L 159.88,187.41 L 167.55,172.21 L 177.30,158.23 L 188.96,145.74 L 202.29,135.01 L 217.02,126.26 L 232.87,119.68 L 249.52,115.39 L 266.64,113.50 L 283.88,114.05 L 300.90,117.04 L 317.34,122.42 L 332.89,130.08 L 347.22,139.87 L 360.04,151.62 L 371.09,165.08 L 380.14,179.99 L 386.99,196.06 L 391.51,212.97 L 393.60,230.37 L 393.21,247.91 L 390.33,265.26 L 385.02,282.04 L 377.37,297.93 L 367.54,312.61 L 355.72,325.76 L 342.13,337.13 L 327.05,346.47 L 310.77,353.60 L 293.62,358.36 L 275.95,360.66 L 258.10,360.42 L 240.44,357.66 L 223.31,352.42 L 207.08,344.81 L 192.07,334.95 L 178.58,323.06 L 166.89,309.35 L 157.25,294.11 L 149.84,277.63 L 144.84,260.25 L 142.34,242.30 L 142.40,224.16 L 145.04,206.18 L 150.20,188.73 L 157.78,172.16 L 167.65,156.81 L 179.61,142.99 L 193.42,130.98 L 208.82,121.03 L 225.49,113.35 L 243.10,108.10 L 261.31,105.38 L 279.74,105.27 L 298.03,107.78 L 315.81,112.85 L 332.71,120.39 L 348.40,130.27 L 362.55,142.28 L 374.88,156.19 L 385.13,171.73 L 393.09,188.58 L 398.60,206.42 L 401.53,224.88 L 401.82,243.60 L 399.45,262.19 L 394.48,280.29 L 386.98,297.52 L 377.11,313.54 L 365.05,328.03 L 351.05,340.68 L 335.37,351.23 L 318.34,359.48 L 300.29,365.24 L 281.58,368.39 L 262.59,368.87 L 243.70,366.65 L 225.28,361.77 L 207.72,354.33 L 191.37,344.47 L 176.55,332.37 L 163.58,318.29 L 152.72,302.49 L 144.19,285.29 L 138.17,267.03 L 134.79,248.08 L 134.12,228.82 L 136.19,209.63 L 140.96,190.90 L 148.33,173.02 L 158.18,156.33 L 170.30,141.19 L 184.46,127.90 L 200.38,116.73 L 217.75,107.91 L 236.20,101.63 L 255.39,98.01 L 274.91,97.15 L 294.39,99.06 L 313.43,103.71 L 331.63,111.02 L 348.65,120.84 L 364.12,132.99 L 377.73,147.21 L 389.21,163.24 L 398.32,180.76 L 404.87,199.41 L 408.72,218.82 L 409.78,238.61 L 408.04,258.37" fill="none" stroke="#f78166" stroke-width="1.6" opacity="0.9"/>
  <path d="M 408.04,258.37 L 403.18,277.61 L 395.66,295.94 L 385.64,313.00 L 373.32,328.46 L 358.95,342.00 L 342.83,353.36 L 325.29,362.31 L 306.69,368.69 L 287.39,372.36 L 267.79,373.27 L 248.29,371.39 L 229.26,366.78 L 211.11,359.54 L 194.18,349.82 L 178.82,337.81 L 165.33,323.77 L 153.98,307.98 L 144.98,290.77 L 138.52,272.48 L 134.71,253.48 L 133.63,234.16 L 135.30,214.91 L 139.66,196.11 L 146.63,178.14 L 156.06,161.36 L 167.75,146.10 L 181.47,132.67 L 196.93,121.32 L 213.81,112.29 L 231.78,105.75 L 250.47,101.82 L 269.51,100.57 L 288.50,102.03 L 307.07,106.15 L 324.85,112.86 L 341.47,121.99 L 356.62,133.37 L 369.99,146.76 L 381.31,161.89 L 390.37,178.44 L 396.99,196.09 L 401.04,214.47 L 402.45,233.21 L 401.19,251.94 L 397.30,270.27 L 390.87,287.85 L 382.02,304.32 L 370.95,319.35 L 357.89,332.64 L 343.09,343.94 L 326.87,353.02 L 309.55,359.70 L 291.49,363.86 L 273.04,365.42 L 254.59,364.36 L 236.50,360.70 L 219.13,354.53 L 202.83,345.98 L 187.92,335.22 L 174.71,322.48 L 163.45,308.02 L 154.36,292.13 L 147.62,275.15 L 143.35,257.40 L 141.64,239.26 L 142.52,221.08 L 145.95,203.24 L 151.86,186.08 L 160.12,169.96 L 170.57,155.19 L 182.99,142.07 L 197.11,130.85 L 212.66,121.76 L 229.31,114.97 L 246.73,110.60 L 264.57,108.75 L 282.46,109.44 L 300.05,112.65 L 316.98,118.31 L 332.91,126.29 L 347.54,136.43 L 360.56,148.52 L 371.73,162.31 L 380.82,177.51 L 387.65,193.83 L 392.11,210.92 L 394.09,228.44 L 393.58,246.04 L 390.59,263.36 L 385.19,280.06 L 377.49,295.80 L 367.66,310.28 L 355.89,323.19 L 342.44,334.30 L 327.58,343.37 L 311.61,350.24 L 294.85,354.78 L 277.65,356.89 L 260.35,356.55 L 243.29,353.78 L 226.83,348.62 L 211.29,341.20 L 196.98,331.68 L 184.18,320.24 L 173.15,307.13 L 164.10,292.61 L 157.20,276.98 L 152.59,260.56 L 150.35,243.69 L 150.53,226.69 L 153.10,209.92 L 158.01,193.71 L 165.15,178.38 L 174.37,164.24 L 185.48,151.57 L 198.26,140.61 L 212.42,131.59 L 227.70,124.68 L 243.77,120.00 L 260.32,117.65 L 277.00,117.66 L 293.49,120.03 L 309.44,124.70 L 324.55,131.57 L 338.51,140.49 L 351.05,151.27 L 361.91,163.70 L 370.89,177.52 L 377.81,192.44 L 382.55,208.17 L 385.01,224.37 L 385.15,240.74 L 382.97,256.92 L 378.54,272.61 L 371.95,287.49 L 363.33,301.26 L 352.87,313.65 L 340.78,324.42 L 327.32,333.35 L 312.75,340.27 L 297.38,345.05 L 281.52,347.61 L 265.49,347.90 L 249.61,345.92 L 234.19,341.72 L 219.55,335.39 L 205.98,327.07 L 193.75,316.93 L 183.10,305.19 L 174.23,292.09 L 167.31,277.88 L 162.49,262.88 L 159.84,247.37 L 159.41,231.67 L 161.21,216.10 L 165.18,200.97 L 171.24,186.58 L 179.26,173.23 L 189.07,161.16 L 200.47,150.63 L 213.21,141.83 L 227.05,134.93 L 241.69,130.08 L 256.84,127.35 L 272.19,126.79 L 287.44,128.40 L 302.28,132.15 L 316.40,137.95 L 329.54,145.68 L 341.42,155.16 L 351.83,166.21 L 360.54,178.59 L 367.41,192.05 L 372.28,206.32 L 375.09,221.11 L 375.77,236.11 L 374.33,251.02 L 370.80,265.55 L 365.26,279.40 L 357.83,292.30 L 348.67,304.00 L 337.97,314.26 L 325.96,322.88 L 312.87,329.70 L 298.98,334.59 L 284.57,337.46 L 269.94,338.26 L 255.36,336.99 L 241.15,333.67 L 227.58,328.39 L 214.93,321.25 L 203.44,312.42 L 193.33,302.07 L 184.81,290.43 L 178.04,277.72 L 173.15,264.22 L 170.23,250.19 L 169.32,235.93 L 170.44,221.71 L 173.54,207.83 L 178.58,194.55 L 185.42,182.16 L 193.93,170.88 L 203.92,160.95 L 215.19,152.54 L 227.51,145.84 L 240.62,140.96 L 254.25,137.99 L 268.13,136.98 L 281.99,137.94 L 295.53,140.85 L 308.49,145.63 L 320.62,152.18 L 331.66,160.36 L 341.42,170.00 L 349.69,180.89 L 356.31,192.82 L 361.18,205.52 L 364.18,218.76 L 365.28,232.25 L 364.46,245.72 L 361.75,258.91 L 357.22,271.55 L 350.95,283.39 L 343.10,294.19 L 333.82,303.75 L 323.31,311.88 L 311.79,318.41 L 299.49,323.24 L 286.66,326.27 L 273.58,327.45 L 260.49,326.77 L 247.67,324.25 L 235.37,319.96 L 223.84,313.98 L 213.29,306.45 L 203.95,297.54 L 195.98,287.41 L 189.55,276.30 L 184.76,264.42 L 181.72,252.02 L 180.47,239.35 L 181.02,226.67 L 183.35,214.23 L 187.41,202.28 L 193.10,191.06 L 200.30,180.79 L 208.86,171.68 L 218.59,163.89 L 229.29,157.57 L 240.74,152.85 L 252.71,149.81 L 264.95,148.49 L 277.21,148.92 L 289.25,151.08 L 300.82,154.90 L 311.71,160.31 L 321.68,167.18 L 330.55,175.37 L 338.15,184.70 L 344.33,194.98 L 348.98,205.99 L 352.01,217.51 L 353.37,229.31 L 353.05,241.13 L 351.07,252.76 L 347.47,263.94 L 342.35,274.47 L 335.81,284.13 L 327.99,292.74 L 319.06,300.13 L 309.22,306.16 L 298.66,310.71 L 287.59,313.71 L 276.26,315.12 L 264.89,314.90 L 253.70,313.08 L 242.92,309.71 L 232.77,304.86 L 223.44,298.65 L 215.12,291.21 L 207.97,282.70 L 202.11,273.29 L 197.66,263.19 L 194.70,252.61 L 193.28,241.76 L 193.40,230.85 L 195.07,220.12 L 198.22,209.78 L 202.79,200.03 L 208.67,191.06 L 215.73,183.04 L 223.82,176.14 L 232.77,170.48 L 242.39,166.16 L 252.48,163.26 L 262.83,161.82 L 273.24,161.87 L 283.49,163.38 L 293.37,166.32 L 302.70,170.61 L 311.29,176.16 L 318.97,182.83 L 325.59,190.49 L 331.04,198.97 L 335.21,208.10 L 338.03,217.67 L 339.46,227.50 L 339.48,237.39 L 338.10,247.13 L 335.37,256.54 L 331.36,265.41 L 326.15,273.58 L 319.87,280.90 L 312.66,287.22 L 304.66,292.42 L 296.05,296.42 L 287.01,299.14 L 277.72,300.54 L 268.39,300.61 L 259.18,299.36 L 250.30,296.84 L 241.91,293.10 L 234.19,288.23 L 227.27,282.35 L 221.29,275.59 L 216.36,268.10 L 212.57,260.03 L 209.97,251.55 L 208.62,242.85 L 208.51,234.09 L 209.64,225.47 L 211.97,217.14 L 215.44,209.28 L 219.96,202.04 L 225.42,195.56 L 231.71,189.96 L 238.68,185.34 L 246.18,181.78 L 254.06,179.35 L 262.15,178.06 L 270.28,177.94 L 278.29,178.97 L 286.01,181.11 L 293.29,184.30 L 299.99,188.47 L 305.99,193.51 L 311.16,199.30 L 315.43,205.72 L 318.71,212.62 L 320.96,219.87 L 322.14,227.29 L 322.25,234.74 L 321.31,242.07 L 319.34,249.13 L 316.42,255.78 L 312.62,261.88 L 308.03,267.33 L 302.75,272.02 L 296.92,275.88 L 290.66,278.83 L 284.11,280.84 L 277.40,281.88 L 270.69,281.95 L 264.11,281.06 L 257.79,279.27 L 251.86,276.62 L 246.44,273.18 L 241.62,269.06 L 237.49,264.34 L 234.12,259.14 L 231.57,253.58 L 229.86,247.78 L 229.02,241.88 L 229.04,236.01 L 229.89,230.27 L 231.54,224.80 L 233.93,219.70 L 236.98,215.07 L 240.61,210.99 L 244.73,207.55 L 249.24,204.78 L 254.01,202.74 L 258.94,201.44 L 263.92,200.88 L 268.83,201.06 L 273.57,201.95 L 278.03,203.49 L 282.12,205.63 L 285.77,208.29 L 288.90,211.40 L 291.46,214.86 L 293.42,218.57 L 294.75,222.43 L 295.45,226.34 L 295.54,230.19 L 295.02,233.89 L 293.96,237.35 L 292.40,240.47 L 290.42,243.19" fill="none" stroke="#a04030" stroke-width="1.3" opacity="0.75"/>
  <path d="M 254.48,250.59 L 251.58,248.88 L 248.92,246.62 L 246.58,243.87 L 244.64,240.67 L 243.19,237.10 L 242.29,233.23 L 241.99,229.16 L 242.33,224.98 L 243.32,220.79 L 244.96,216.69 L 247.26,212.81 L 250.17,209.22 L 253.66,206.05 L 257.66,203.36 L 262.10,201.26 L 266.89,199.80 L 271.94,199.05 L 277.13,199.04 L 282.36,199.80 L 287.51,201.34 L 292.46,203.64 L 297.09,206.69 L 301.30,210.43 L 304.98,214.81 L 308.02,219.74 L 310.36,225.13 L 311.92,230.89 L 312.64,236.88 L 312.50,243.00 L 311.46,249.10 L 309.53,255.07 L 306.73,260.77 L 303.11,266.07 L 298.71,270.84 L 293.61,274.99 L 287.91,278.40 L 281.72,280.99 L 275.15,282.68 L 268.34,283.43 L 261.42,283.19 L 254.54,281.95 L 247.84,279.72 L 241.47,276.53 L 235.56,272.43 L 230.25,267.48 L 225.66,261.77 L 221.90,255.41 L 219.06,248.52 L 217.21,241.23 L 216.41,233.69 L 216.70,226.05 L 218.08,218.47 L 220.55,211.10 L 224.06,204.11 L 228.57,197.63 L 234.00,191.82 L 240.25,186.80 L 247.20,182.70 L 254.71,179.59 L 262.65,177.58 L 270.85,176.70 L 279.15,177.01 L 287.38,178.50 L 295.37,181.16 L 302.95,184.95 L 309.96,189.82 L 316.25,195.67 L 321.68,202.39 L 326.13,209.87 L 329.49,217.95 L 331.68,226.49 L 332.65,235.30 L 332.35,244.21 L 330.79,253.04 L 327.96,261.62 L 323.93,269.75 L 318.75,277.27 L 312.53,284.02 L 305.37,289.85 L 297.41,294.63 L 288.80,298.26 L 279.72,300.64 L 270.34,301.71 L 260.85,301.44 L 251.45,299.82 L 242.32,296.87 L 233.66,292.63 L 225.65,287.18 L 218.46,280.61 L 212.23,273.06 L 207.12,264.65 L 203.23,255.56 L 200.66,245.96 L 199.47,236.05 L 199.69,226.02 L 201.34,216.08 L 204.40,206.43 L 208.82,197.26 L 214.52,188.77 L 221.39,181.15 L 229.31,174.54 L 238.13,169.10 L 247.67,164.94 L 257.75,162.17 L 268.17,160.85 L 278.71,161.01 L 289.17,162.68 L 299.33,165.82 L 308.98,170.40 L 317.92,176.31 L 325.97,183.47 L 332.96,191.73 L 338.73,200.93 L 343.15,210.89 L 346.13,221.42 L 347.59,232.32 L 347.50,243.35 L 345.83,254.30 L 342.62,264.95 L 337.92,275.07 L 331.80,284.47 L 324.39,292.93 L 315.83,300.29 L 306.27,306.38 L 295.90,311.07 L 284.94,314.26 L 273.59,315.87 L 262.09,315.86 L 250.66,314.21 L 239.55,310.96 L 228.96,306.14 L 219.14,299.85 L 210.27,292.20 L 202.54,283.35 L 196.13,273.45 L 191.16,262.71 L 187.76,251.34 L 185.99,239.56 L 185.90,227.61 L 187.52,215.72 L 190.81,204.15 L 195.73,193.12 L 202.17,182.87 L 210.03,173.60 L 219.16,165.51 L 229.37,158.78 L 240.46,153.54 L 252.22,149.91 L 264.42,147.97 L 276.80,147.79 L 289.13,149.36 L 301.15,152.67 L 312.61,157.67 L 323.28,164.25 L 332.94,172.31 L 341.39,181.68 L 348.45,192.19 L 353.96,203.62 L 357.82,215.75 L 359.92,228.34 L 360.22,241.15 L 358.71,253.90 L 355.39,266.35 L 350.33,278.23 L 343.62,289.31 L 335.38,299.36 L 325.78,308.17 L 315.00,315.55 L 303.24,321.34 L 290.76,325.43 L 277.78,327.71 L 264.57,328.14 L 251.40,326.68 L 238.54,323.37 L 226.24,318.26 L 214.75,311.44 L 204.32,303.04 L 195.16,293.22 L 187.46,282.18 L 181.38,270.12 L 177.06,257.29 L 174.60,243.95 L 174.04,230.35 L 175.42,216.78 L 178.71,203.51 L 183.86,190.80 L 190.78,178.92 L 199.33,168.11 L 209.35,158.60 L 220.64,150.58 L 232.98,144.22 L 246.14,139.66 L 259.83,137.00 L 273.81,136.30 L 287.77,137.60 L 301.44,140.86 L 314.55,146.04 L 326.82,153.04 L 338.00,161.72 L 347.87,171.93 L 356.21,183.45 L 362.85,196.07 L 367.66,209.53 L 370.51,223.57 L 371.35,237.91 L 370.15,252.26 L 366.93,266.32 L 361.74,279.82 L 354.67,292.47 L 345.86,304.03 L 335.49,314.24 L 323.74,322.90 L 310.86,329.83 L 297.10,334.88 L 282.73,337.94 L 268.04,338.94 L 253.32,337.84 L 238.87,334.67 L 224.99,329.47 L 211.96,322.34 L 200.04,313.43 L 189.48,302.89 L 180.49,290.94 L 173.27,277.81 L 167.97,263.76 L 164.71,249.07 L 163.55,234.04 L 164.54,218.96 L 167.65,204.14 L 172.84,189.88 L 180.01,176.47 L 189.03,164.18 L 199.71,153.28 L 211.86,143.97 L 225.23,136.46 L 239.55,130.91 L 254.55,127.43 L 269.92,126.11 L 285.35,126.97 L 300.53,130.02 L 315.16,135.19 L 328.94,142.40 L 341.59,151.50 L 352.84,162.32 L 362.47,174.65 L 370.27,188.24 L 376.08,202.83 L 379.78,218.13 L 381.28,233.82 L 380.54,249.60 L 377.57,265.14 L 372.42,280.14 L 365.19,294.28 L 356.01,307.29 L 345.06,318.88 L 332.56,328.83 L 318.75,336.93 L 303.91,343.00 L 288.33,346.92 L 272.32,348.60 L 256.21,347.99 L 240.31,345.11 L 224.95,339.99 L 210.45,332.75 L 197.09,323.50 L 185.15,312.44 L 174.88,299.78 L 166.49,285.77 L 160.15,270.68 L 156.01,254.82 L 154.14,238.51 L 154.61,222.06 L 157.40,205.82 L 162.47,190.11 L 169.72,175.25 L 179.02,161.54 L 190.19,149.26 L 203.00,138.67 L 217.20,129.98 L 232.52,123.37 L 248.65,118.99 L 265.26,116.94 L 282.03,117.26 L 298.61,119.94 L 314.67,124.96 L 329.89,132.21 L 343.95,141.56 L 356.56,152.82 L 367.48,165.77 L 376.47,180.16 L 383.34,195.70 L 387.96,212.09 L 390.21,228.99 L 390.05,246.07 L 387.47,262.99 L 382.51,279.39 L 375.27,294.96 L 365.89,309.36 L 354.55,322.32 L 341.46,333.56 L 326.90,342.85 L 311.14,350.00 L 294.50,354.85 L 277.32,357.31 L 259.93,357.30 L 242.69,354.84 L 225.94,349.95 L 210.03,342.74 L 195.28,333.33 L 181.99,321.91 L 170.43,308.70 L 160.84,293.97 L 153.41,278.01 L 148.31,261.12 L 145.65,243.67 L 145.48,225.98 L 147.82,208.42 L 152.63,191.34 L 159.82,175.09 L 169.25,159.99 L 180.74,146.36 L 194.05,134.48 L 208.94,124.58 L 225.11,116.88 L 242.22,111.53 L 259.95,108.66 L 277.93,108.32 L 295.80,110.53 L 313.21,115.25 L 329.80,122.40 L 345.24,131.84 L 359.20,143.38 L 371.41,156.81 L 381.61,171.84 L 389.59,188.19 L 395.19,205.54 L 398.29,223.52 L 398.81,241.79 L 396.73,259.98 L 392.10,277.71 L 385.00,294.63 L 375.56,310.41 L 363.96,324.70 L 350.45,337.24 L 335.27,347.74 L 318.74,356.01 L 301.18,361.87 L 282.94,365.18 L 264.39,365.89 L 245.90,363.96 L 227.85,359.42 L 210.59,352.37 L 194.48,342.94 L 179.85,331.31 L 167.00,317.70 L 156.18,302.40 L 147.63,285.69 L 141.51,267.92 L 137.97,249.43 L 137.07,230.61 L 138.86,211.82 L 143.28,193.45 L 150.27,175.87 L 159.69,159.43 L 171.35,144.47 L 185.04,131.29 L 200.47,120.16 L 217.34,111.32 L 235.31,104.94 L 254.04,101.17 L 273.13,100.08 L 292.21,101.70 L 310.89,106.01 L 328.80,112.93 L 345.57,122.33 L 360.86,134.02 L 374.37,147.77 L 385.80,163.32 L 394.94,180.35 L 401.58,198.52 L 405.59,217.47 L 406.88,236.83 L 405.42,256.20 L 401.23,275.19 L 394.38,293.42 L 385.01,310.52 L 373.31,326.14 L 359.49,339.97 L 343.84,351.71 L 326.66,361.14 L 308.30,368.05 L 289.12,372.30 L 269.51,373.80 L 249.86,372.50 L 230.57,368.44 L 212.02,361.68 L 194.59,352.35 L 178.64,340.63 L 164.49,326.76 L 152.43,311.01" fill="none" stroke="#c792ea" stroke-width="1.6" opacity="0.9"/>
  <path d="M 152.43,311.01 L 143.02,293.55 L 136.18,274.95 L 132.04,255.60 L 130.69,235.88 L 132.13,216.19 L 136.35,196.93 L 143.23,178.48 L 152.64,161.21 L 164.39,145.46 L 178.23,131.56 L 193.88,119.76 L 211.02,110.31 L 229.30,103.39 L 248.35,99.12 L 267.78,97.60 L 287.22,98.84 L 306.25,102.81 L 324.52,109.43 L 341.64,118.55 L 357.27,129.99 L 371.12,143.50 L 382.90,158.82 L 392.38,175.63 L 399.38,193.59 L 403.76,212.33 L 405.44,231.48 L 404.40,250.66 L 400.67,269.46 L 394.32,287.53 L 385.49,304.49 L 374.36,320.01 L 361.17,333.79 L 346.18,345.54 L 329.70,355.05 L 312.07,362.11 L 293.63,366.61 L 274.78,368.45 L 255.87,367.61 L 237.31,364.10 L 219.44,358.01 L 202.64,349.47 L 187.24,338.65 L 173.55,325.79 L 161.82,311.13 L 152.31,294.98 L 145.18,277.67 L 140.58,259.56 L 138.58,241.00 L 139.24,222.37 L 142.52,204.05 L 148.34,186.39 L 156.60,169.77 L 167.11,154.50 L 179.66,140.89 L 193.98,129.20 L 209.79,119.68 L 226.77,112.50 L 244.57,107.79 L 262.82,105.66 L 281.17,106.13 L 299.24,109.18 L 316.68,114.76 L 333.12,122.73 L 348.25,132.93 L 361.77,145.16 L 373.40,159.15 L 382.93,174.62 L 390.16,191.26 L 394.95,208.74 L 397.22,226.68 L 396.93,244.75 L 394.09,262.56 L 388.77,279.77 L 381.08,296.03 L 371.18,311.01 L 359.28,324.42 L 345.63,336.00 L 330.49,345.51 L 314.19,352.78 L 297.04,357.66 L 279.41,360.06 L 261.64,359.95 L 244.09,357.32 L 227.12,352.25 L 211.06,344.83 L 196.23,335.24 L 182.93,323.66 L 171.42,310.34 L 161.92,295.55 L 154.63,279.58 L 149.67,262.77 L 147.14,245.46 L 147.09,227.99 L 149.51,210.71 L 154.34,193.98 L 161.47,178.13 L 170.77,163.46 L 182.02,150.28 L 195.01,138.85 L 209.46,129.38 L 225.08,122.06 L 241.55,117.03 L 258.54,114.39 L 275.70,114.18 L 292.69,116.40 L 309.18,120.98 L 324.82,127.85 L 339.31,136.84 L 352.36,147.77 L 363.71,160.42 L 373.14,174.53 L 380.47,189.80 L 385.56,205.92 L 388.31,222.58 L 388.68,239.43 L 386.66,256.14 L 382.31,272.36 L 375.71,287.78 L 367.02,302.08 L 356.41,314.99 L 344.10,326.25 L 330.34,335.64 L 315.42,342.97 L 299.65,348.12 L 283.33,350.97 L 266.80,351.48 L 250.39,349.66 L 234.43,345.53 L 219.25,339.21 L 205.14,330.81 L 192.38,320.52 L 181.22,308.55 L 171.89,295.15 L 164.56,280.58 L 159.37,265.16 L 156.42,249.18 L 155.77,232.98 L 157.41,216.88 L 161.30,201.20 L 167.37,186.26 L 175.47,172.35 L 185.44,159.75 L 197.07,148.71 L 210.12,139.44 L 224.32,132.12 L 239.39,126.90 L 255.01,123.87 L 270.88,123.08 L 286.67,124.54 L 302.06,128.21 L 316.75,134.01 L 330.45,141.82 L 342.87,151.47 L 353.79,162.76 L 362.99,175.45 L 370.28,189.29 L 375.52,203.99 L 378.63,219.26 L 379.55,234.78 L 378.26,250.25 L 374.81,265.35 L 369.26,279.77 L 361.75,293.24 L 352.42,305.49 L 341.48,316.27 L 329.14,325.38 L 315.67,332.64 L 301.34,337.90 L 286.44,341.08 L 271.27,342.12 L 256.13,341.00 L 241.34,337.76 L 227.19,332.46 L 213.95,325.24 L 201.90,316.23 L 191.26,305.63 L 182.25,293.66 L 175.04,280.56 L 169.77,266.61 L 166.53,252.08 L 165.38,237.26 L 166.34,222.47 L 169.38,208.00 L 174.42,194.13 L 181.35,181.14 L 190.04,169.29 L 200.29,158.81 L 211.90,149.91 L 224.62,142.76 L 238.20,137.49 L 252.35,134.20 L 266.79,132.95 L 281.23,133.76 L 295.37,136.59 L 308.95,141.38 L 321.68,148.04 L 333.31,156.40 L 343.61,166.31 L 352.39,177.54 L 359.48,189.88 L 364.73,203.07 L 368.06,216.83 L 369.41,230.89 L 368.75,244.97 L 366.11,258.78 L 361.56,272.04 L 355.19,284.50 L 347.14,295.90 L 337.59,306.02 L 326.72,314.66 L 314.77,321.67 L 301.99,326.90 L 288.62,330.26 L 274.95,331.69 L 261.25,331.17 L 247.79,328.72 L 234.85,324.41 L 222.68,318.32 L 211.52,310.59 L 201.60,301.39 L 193.10,290.90 L 186.19,279.35 L 181.00,266.96 L 177.62,254.00 L 176.11,240.73 L 176.50,227.42 L 178.76,214.32 L 182.84,201.72 L 188.65,189.85 L 196.06,178.96 L 204.91,169.24 L 215.02,160.91 L 226.17,154.10 L 238.14,148.96 L 250.69,145.58 L 263.55,144.01 L 276.46,144.27 L 289.17,146.35 L 301.43,150.20 L 312.98,155.73 L 323.60,162.82 L 333.08,171.32 L 341.24,181.04 L 347.92,191.79 L 353.00,203.34 L 356.38,215.45 L 358.01,227.89 L 357.86,240.39 L 355.95,252.71 L 352.32,264.59 L 347.07,275.81 L 340.30,286.14 L 332.16,295.37 L 322.83,303.34 L 312.50,309.88 L 301.38,314.88 L 289.70,318.25 L 277.70,319.92 L 265.63,319.87 L 253.72,318.12 L 242.22,314.72 L 231.36,309.74 L 221.34,303.29 L 212.37,295.52 L 204.61,286.58 L 198.23,276.67 L 193.32,265.99 L 189.99,254.76 L 188.29,243.22 L 188.24,231.59 L 189.83,220.12 L 193.02,209.02 L 197.73,198.53 L 203.86,188.84 L 211.27,180.16 L 219.80,172.63 L 229.28,166.42 L 239.50,161.62 L 250.26,158.34 L 261.33,156.62 L 272.50,156.48 L 283.52,157.93 L 294.19,160.90 L 304.29,165.35 L 313.63,171.15 L 322.01,178.19 L 329.28,186.32 L 335.30,195.35 L 339.97,205.11 L 343.19,215.39 L 344.91,225.97 L 345.12,236.65 L 343.81,247.21 L 341.04,257.43 L 336.87,267.11 L 331.38,276.06 L 324.72,284.12 L 317.01,291.11 L 308.43,296.92 L 299.16,301.43 L 289.38,304.57 L 279.30,306.28 L 269.13,306.55 L 259.07,305.37 L 249.33,302.80 L 240.09,298.89 L 231.54,293.73 L 223.85,287.45 L 217.15,280.17 L 211.59,272.06 L 207.25,263.28 L 204.22,254.02 L 202.53,244.48 L 202.22,234.84 L 203.27,225.31 L 205.66,216.07 L 209.31,207.31 L 214.13,199.20 L 220.03,191.89 L 226.87,185.53 L 234.50,180.24 L 242.76,176.10 L 251.47,173.19 L 260.45,171.56 L 269.52,171.22 L 278.50,172.16 L 287.19,174.36 L 295.44,177.75 L 303.08,182.25 L 309.96,187.75 L 315.95,194.14 L 320.94,201.26 L 324.85,208.97 L 327.60,217.11 L 329.16,225.50 L 329.51,233.97 L 328.66,242.34 L 326.64,250.46 L 323.51,258.15 L 319.35,265.27 L 314.25,271.68 L 308.34,277.26 L 301.74,281.91 L 294.60,285.55 L 287.07,288.11 L 279.32,289.57 L 271.49,289.91 L 263.76,289.13 L 256.28,287.28 L 249.20,284.40 L 242.65,280.58 L 236.76,275.90 L 231.65,270.48 L 227.39,264.44 L 224.07,257.91 L 221.73,251.04 L 220.42,243.97 L 220.12,236.85 L 220.84,229.82 L 222.54,223.04 L 225.16,216.64 L 228.64,210.73 L 232.88,205.44 L 237.78,200.85 L 243.23,197.05 L 249.10,194.11 L 255.26,192.06 L 261.58,190.93 L 267.92,190.71 L 274.16,191.41 L 280.15,192.97 L 285.79,195.34 L 290.96,198.46 L 295.56,202.24 L 299.52,206.59 L 302.77,211.39 L 305.25,216.54 L 306.93,221.92 L 307.81,227.39 L 307.88,232.85 L 307.17,238.18 L 305.72,243.26 L 303.58,247.99 L 300.82,252.28 L 297.53,256.05 L 293.78,259.24 L 289.70,261.78 L 285.37,263.66 L 280.90,264.85 L 276.42,265.34 L 272.01,265.17 L 267.78,264.35 L 263.83,262.94 L 260.24,260.99 L 257.08,258.58 L 254.42,255.79 L 252.30,252.72 L 250.75,249.45 L 249.78,246.10 L 249.41,242.75" fill="none" stroke="#8060b8" stroke-width="1.3" opacity="0.75"/>

  <!-- R_max annotation -->
  <line x1="270" y1="235" x2="181" y2="127" stroke="#3a6fa0" stroke-width="1" stroke-dasharray="3,3"/>
  <text x="185" y="123" fill="#3a6fa0" font-size="11">R_max = min(w,h)/2</text>
  <text x="185" y="135" fill="#3a6fa0" font-size="10">(inscribed circle, auto)</text>
  <!-- rMin annotation -->
  <line x1="270" y1="235" x2="257" y2="217" stroke="#e6a817" stroke-width="1" stroke-dasharray="3,3"/>
  <text x="254" y="217" fill="#e6a817" text-anchor="end" font-size="11">rMin (inner cutoff)</text>
  <!-- Turn spacing annotation -->
  <circle cx="281.01" cy="316.92" r="2.5" fill="#aaa"/>
  <circle cx="282.60" cy="328.75" r="2.5" fill="#aaa"/>
  <line x1="281.01" y1="316.92" x2="282.60" y2="328.75" stroke="#aaa" stroke-width="1.1" stroke-dasharray="3,3"/>
  <text x="282" y="316" fill="#aaa" text-anchor="middle" font-size="10">turn spacing</text>
  <!-- offset(X) annotation -->
  <line x1="212" y1="235" x2="266" y2="235" stroke="#e6a817" stroke-width="1.3" stroke-dasharray="4,3" marker-end="url(#arr-gold)"/>
  <text x="208" y="230" fill="#e6a817" text-anchor="end" font-size="11">offset(X)</text>
  <text x="208" y="243" fill="#e6a817" text-anchor="end" font-size="10">shifts center H</text>
  <!-- Golden angle arc -->
  <path d="M 274.53,268.70 A 34.0,34.0 0 0,1 243.90,213.21" fill="none" stroke="#c792ea" stroke-width="1.3"/>
  <text x="316" y="210" fill="#c792ea" font-size="10" text-anchor="middle">golden angle ~137.5°</text>

  <!-- Legend box -->
  <rect x="452" y="22" width="158" height="172" rx="6" fill="#161b22" stroke="#30363d" stroke-width="1"/>
  <text x="531" y="40" fill="#ccc" text-anchor="middle" font-size="12" font-weight="bold">Arm Cycle</text>
  <line x1="462" y1="58" x2="487" y2="58" stroke="#58a6ff" stroke-width="1.8"/>
  <text x="494" y="62" fill="#58a6ff" font-size="10">1. Outward  rMin -&gt; R_max</text>
  <line x1="462" y1="80" x2="487" y2="80" stroke="#aaa" stroke-width="1.8" stroke-dasharray="4,3"/>
  <text x="494" y="84" fill="#aaa" font-size="10">2. Periph spline (128 samp)</text>
  <line x1="462" y1="102" x2="487" y2="102" stroke="#3d7dc8" stroke-width="1.8"/>
  <text x="494" y="106" fill="#3d7dc8" font-size="10">3. Inward   R_max -&gt; rMin</text>
  <line x1="462" y1="124" x2="487" y2="124" stroke="#aaa" stroke-width="1.8" stroke-dasharray="4,3"/>
  <text x="494" y="128" fill="#aaa" font-size="10">4. Center spline (variable)</text>
  <text x="462" y="150" fill="#666" font-size="10">Each color = one arm cycle.</text>
  <text x="462" y="164" fill="#666" font-size="10">Arms rotate by golden angle.</text>
  <text x="462" y="178" fill="#666" font-size="10">Sample rate fixed at 100 kHz.</text>

  <!-- Parameter box -->
  <rect x="452" y="210" width="158" height="193" rx="6" fill="#161b22" stroke="#30363d" stroke-width="1"/>
  <text x="531" y="228" fill="#ccc" text-anchor="middle" font-size="12" font-weight="bold">Parameters</text>
  <text x="462" y="248" fill="#e6a817" font-size="11">rMin</text>
  <text x="600" y="248" fill="#666" font-size="10" text-anchor="end">inner cutoff (px)</text>
  <text x="462" y="268" fill="#aaa" font-size="11">turn spacing</text>
  <text x="600" y="268" fill="#666" font-size="10" text-anchor="end">arm density (px)</text>
  <text x="462" y="288" fill="#aaa" font-size="11">turn duration</text>
  <text x="600" y="288" fill="#666" font-size="10" text-anchor="end">ms per revolution</text>
  <text x="462" y="308" fill="#e6a817" font-size="11">offset(X)</text>
  <text x="600" y="308" fill="#666" font-size="10" text-anchor="end">center shift (px)</text>
  <line x1="462" y1="330" x2="600" y2="330" stroke="#30363d" stroke-width="1"/>
  <text x="462" y="345" fill="#555" font-size="10">r = c · √θ</text>
  <text x="462" y="358" fill="#555" font-size="10">c = spacing / √(2π)</text>
  <text x="462" y="371" fill="#555" font-size="10">θ_max = (R_max / c)²</text>
  <text x="462" y="384" fill="#555" font-size="10">θ_min = (rMin  / c)²</text>
  <text x="462" y="397" fill="#555" font-size="10">n_turns = R² / spacing²</text>
</svg>